<svg xmlns="http://www.w3.org/2000/svg" xmlns:xlink="http://www.w3.org/1999/xlink" width="247" height="224" viewBox="0 0 247 224"><defs><path id="a" d="M0 .497h247.006V224H0z"/></defs><g fill="none" fill-rule="evenodd"><g transform="translate(0 -.497)"><mask id="b" fill="#fff"><use xlink:href="#a"/></mask><path fill="#231F20" d="M157.26 20.94c1.28 7.544 1.395 17.554 6.723 23.593 6.876 7.613 11.793 17.665 8.16 28.36.931 2.596 4.132 4.414 6.062 6.356 6.457-1.13 14.17-3.822 19.961.918 7.287 10.146 1.022 25.073 7.658 34.315 16.96 21.35 52.748 40.134 37.478 73.177-5.263 13.012-13.394 24.989-21.465 36.34l-36.037-1.841a349.937 349.937 0 0 0 9.084-14.468l-11.485-2.924-2.31 1.617-30.169.045c-1.572-10.484-4.174-20.126-11.194-28.446.82-4.506 4.934-11.748 1.915-15.997-3.522.342-7.569.429-10.785 2.079 3.408 4.54 6.763 10.743 3.482 17.054-1.013 1.88 3.362 3.29 4.542 4.665 2.487 3.732 3.916 6.274 3.025 11.024-6.278 2.38-12.225.892-18.67 1.213-1.615.662-2.172 2.356-2.814 3.802-3.048 1.928-5.095 2.365-8.243.96-5.348.683-11.82 1.32-15.872-4.533-4.415-.642-6.866-2.896-8.707-6.78 0 0 .153-1.971.653-3.777.447-1.611 1.358-3.968 3.284-4.72.493-.226 2.821-2.716 3.736-3.705-.457-2.76-.814-6.96-2.519-9.273-7.545 7.199-17.212 11.847-28.964 10.777-1.077.822-1.449 2.17-1.847 3.396 6.457 3.287 10.734 9.978 10.484 16.985l.001 3.034H38.6c-.356-2.257-2.934-18.436.203-22.491 7.485-4.404 8.963-13.885 14.658-18.024 2.808-.66 5.723-.825 8.561-1.488 5.22-2.985 7.442-7.911 8.48-13.8-6.219.065-6.025 12.063-14.977 12.809-6.208.892-11.076-.256-15.039-4.22-4.727-4.465-6.019-10.963-4.429-17.061 6.108-12.98 21.154-14.254 27.022-25.004-.206-1.957-.72-4.828-3.097-5.25-1.307.002-4.264-.107-5.04 1.293 1.402 3.212 1.278 7.598-1.096 10.764-4.13 4.425-9.783 7.53-14.666 11.057-1.654-12.562-5.317-27.256 10.071-33.465 4.478-1.991 12.278-2.462 16.924.478 2.116-.491 4.281-2.236 5.574-4.232-4.329-.242-6.789-.24-10.965-2.382-7.52-3.196-13.957-7.896-17.298-15.69 2.417-1.21 4.066-2.784 5.96-4.652-11.722-2.855-21.004-13.634-24.649-24.567 3.132-2.2 6.21-3.578 9.661-5.08C13.001 37.653 4.717 20.78 0 .497 34.681 4.722 64.46 4.9 99.238 3.8c6.717-.213 12.393-1.09 18.737-1.71 8.073-.79 14.93-.881 23.104-.177 10.99 2.194 14.517 9.227 16.18 19.027m-61.525 90.53l-2.199 5.375c2.324 3.292 10.022 2.438 11.164 5.474.298.793-2.822 6.12-3.632 7.587-5.796.737-13.246-2.192-19.109 1.228-8.06 1.222-9.725-3.757-17.486 2.776-6.043 4.249-7.33 13.71-14.414 12.734-2.656-1.461 0-4.153 0-4.153 10.258-8.793 30.043-17.83 24.181-35.172 6.595 3.175 13.434 5.129 21.495 4.152" mask="url(#b)"/><path fill="#FAB600" d="M146.295 10.105c7.815 6.595 4.151 17.83 7.571 26.379 3.664 11.236 15.983 20.109 13.784 33.543-3.266-2.038-7.362-2.78-10.782-3.757 2.198-21.74-26.695-32.228-21.076-54.455h-6.596c3.898-1.42-77.917 26.379-77.917 26.379-10.503 1.222-20.762-.977-28.822-7.572-7.084-6.595-11.724-14.166-13.923-22.96 38.348 1.466 74.01 2.93 113.091-.976 8.304.732 18.318-2.2 24.67 3.419"/><path fill="#FAB600" d="M130.418 24.76L67.644 64.085c-7.328 4.153-18.563 4.885-25.647-.733-4.885-2.93-7.328-7.816-10.015-12.213l6.352-3.419c30.287-9.526 60.086-20.762 90.374-30.532 1.465 2.198 1.954 4.641 1.71 7.572m6.351 10.503c-16.121 18.32-35.417 34.44-53.736 49.828-5.618 3.908-11.231 5.191-18.07 3.725-3.908-2.687-9.554-3.758-12.463-9.587l79.628-49.095c2.931 0 3.419 3.175 4.641 5.13m8.305 10.014c-3.37 5.055-6.392 12.786-11.712 16.772-4.517-.03-5.99.953-8.806 2.524-4.396 3.664-5.374 8.549-6.35 13.434l3.369.026c-8.06 10.015-16.071 26.11-29.75 28.796-6.105.244-11.48-1.71-15.876-5.373 20.273-21.74 42.745-39.814 63.75-60.82 2.443.245 4.153 2.93 5.375 4.64m7.083 15.877c.489 3.42-.244 5.618-3.664 6.351-2.931-.977-5.373-2.687-8.061-4.153 2.707-3.862 5.163-8.6 8.676-12.114l3.049 9.916z"/><path fill="#FAB600" d="M153.867 71.169c8.549-.49 14.41 7.328 20.518 12.213-5.374 5.618-2.688 15.143 0 21.006-3.42 5.862-9.771 12.945-4.642 20.029 1.954 3.419 4.397 7.816 1.71 11.724-.487-2.687-3.175-4.885-5.373-7.084l-3.42 5.374c-1.954-2.198-3.175-5.617-3.42-8.793-4.64.733-2.931 8.793-8.304 10.014-1.221-4.885-2.443-10.258-1.221-15.388-2.931-1.465-4.885 3.664-7.084 4.64-2.443-2.197-1.71-6.594-.977-9.28.977-1.222 1.222-2.932 2.93-4.153l-4.884-.49c-.488-4.151 4.152-8.06 8.305-8.792 2.93-.732 4.64.978 6.35 2.93 1.222-2.685-.732-5.861-3.42-7.082-7.083-.244-13.433 7.816-20.516 2.443v-1.955c7.083-1.465 12.7-6.84 19.296-9.77-7.816-5.373-15.837-13.751-25.12-15.461-.443-2.85 3.38-5.79 6.312-6.277 9.525-2.931 14.167 12.7 22.96 4.152"/><path fill="#231F20" d="M169.743 85.824c-5.13-5.618-15.388 3.664-17.097-5.862 2.687.977 6.106.488 8.305-1.22 3.419 2.441 5.373 4.395 8.792 7.082"/><path fill="#FAB600" d="M135.792 84.603c.488 4.152-2.931 7.328-5.862 9.282h-5.863c-1.954 4.396 2.932 7.572 4.642 11.235-8.305 0-16.122 4.885-20.518 11.725-2.442.244-6.226-.504-8.18-1.97l27.965-35.646c3.175.733 5.862 3.175 7.816 5.374m60.82 21.739c4.64 23.448 34.928 30.043 41.768 52.026-21.74-17.342-52.028-34.44-62.287-59.842-1.464-4.641-.243-9.526 3.665-12.702 3.664-2.687 8.793-5.13 13.434-2.442 6.595 5.374.977 15.388 3.42 22.96M67.528 110.97c-2.592-6.541-9.51-6.21-14.623-4.992-4.553 1.04-4.211 2.935-3.183 5.079.235.49.505 1.004.744 1.536.236.524.435 1.047.543 1.579.212 1.037.065 2.145-.891 3.269-1.584 2.94-4.37 5.192-7.276 6.01-.236-6.953-.325-13.371 5.233-17.54 5.122-3.414 14.626-5.892 19.302-.046 3.545 3.072 4.697 7.542 2.855 12.057-2.401 5.642-6.662 9.253-11.354 12.634-2.353 1.696-4.8 3.324-7.144 5.108-2.355 1.79-4.647 3.786-6.625 6.135-2.098 4.195 1.06 8.077 4.284 9.813 3.4.235 5.82-1.095 7.83-3.066 1-.981 1.904-2.124 2.76-3.318.854-1.19 1.67-2.441 2.503-3.656 3.302-4.816 6.72-8.831 13.67-6.36.715 1.865-.648 3.973-2.074 5.89-3.487-.667-6.038.347-8.108 2.134-1.05.905-1.97 2.005-2.828 3.17-.853 1.16-1.654 2.398-2.466 3.6-3.227 4.78-6.46 8.747-13.87 5.1-5.18-2.825-6.882-8.922-5.207-14.664 1.797-2.935 4.3-5.223 7.09-7.317 2.806-2.104 5.856-3.948 8.66-5.9 5.637-3.921 10.426-8.36 10.175-16.255m67.042-1.21c.977 3.175-2.198 6.106-4.152 8.793 1.465.977 3.42.49 5.374.49-.489 6.593 4.884 10.746 4.64 17.096 1.467-.488 2.687-2.442 4.152-3.419 2.444 2.198 1.466 6.106 1.711 9.282 3.908.488 7.816-2.443 10.99-5.374l1.955 8.305c-8.06 14.166-25.158 11.97-38.837 15.144-2.198-2.199-.732-5.862-1.22-8.794 2.686-3.175 8.304-6.594 8.792-10.502-5.373-2.443-9.77 5.617-13.922 8.792 3.42 12.458-8.06 28.334 5.13 37.616 1.465 4.153.488 10.014-3.42 11.724h-1.222c-2.198-1.953 1.954-4.397-1.22-5.86-1.955 2.196-5.619 8.791-9.772 4.64-2.442-2.688 2.932-4.886 0-7.085-2.686 1.222-5.86 4.886-8.792 1.711-1.955-.977-2.18-4.09-.714-5.31 3.044-3.203 6.576-1.53 7.553-4.46-3.664-8.06-1.222-18.808-8.794-25.404 6.596-15.387 14.412-30.287 25.403-43.966 4.397-3.663 10.991-2.198 16.365-3.419m46.897 7.572c-2.687 1.466-5.862 1.71-8.793 2.442-2.198-3.907.977-7.571 4.152-9.525 2.443 1.465 4.886 4.152 4.641 7.083m10.504 10.015c-3.176 5.862-9.77 7.816-15.145 10.015.978-4.641-1.709-9.038-2.442-13.434 3.282-1.713 6.333-2.03 11.345-2.391 2.63.559 3.24 2.572 6.242 5.81m11.724 10.503c1.142.784.572 2.33-1.71 4.64-10.991 7.572-21.738 15.144-33.463 20.517.977-5.862 2.688-12.7 5.374-18.563l22.228-12.457c2.685 1.466 5.617 3.665 7.57 5.863m-105.518-4.153c-2.442 9.77-14.899 19.052-7.083 29.311-6.839 19.051-32.242 2.93-36.395 22.96 4.397 1.954 10.26 4.64 11.725 9.281 0 1.221.488 2.687-.489 3.664-3.908-.243-4.152-5.86-8.304-6.594-2.443 2.197 3.42 5.861-.977 6.594-1.955-1.71-2.687-5.618-5.863-5.373l-.732 5.373c-2.93.244-4.929 1.42-6.414-2.105-3.758-11.273 6.533-18.789 11.787-27.938 27.601.733 13.68-42.256 42.745-35.173"/><path fill="#FAB600" d="M168.034 139.56c.488 16.61-16.365 33.22-4.152 49.34 5.129.732 11.235 2.442 12.945 7.571.978.978.244 2.931.488 4.153-3.908 1.954-3.908-5.618-8.304-5.862l-.49 6.35c-3.175-.488-4.64-7.816-8.303-5.129-.733 1.954 1.465 2.688.733 4.64-1.222.978-3.176.49-4.642.49-1.954-8.792-5.373-17.099-10.747-24.425 4.397-7.328-.244-20.273 11.724-22.472 7.084-3.665 4.886-12.458 9.526-16.365l1.222 1.71z"/><path fill="#FAB600" d="M216.641 148.353c-6.596 17.343-26.624 26.624-39.814 40.06-9.77.975-10.748-7.818-12.457-14.657l1.22-2.442c14.411-9.282 30.29-16.61 42.746-29.311 2.931 1.466 7.327 2.443 8.305 6.35m11.724 8.305c0 19.541-16.61 31.997-28.822 46.41-7.083-.734-16.121-.246-18.808-8.305v-3.42c13.434-13.679 31.753-23.449 40.058-40.547 3.664.488 5.13 3.908 7.572 5.862"/><path fill="#FAB600" d="M240.578 174.244c-1.954 17.343-13.19 31.265-22.228 45.188-8.304.49-15.632-.733-23.448-1.22 10.503-20.275 33.95-35.174 38.104-58.134 5.129 3.175 6.839 8.793 7.572 14.166m-109.671 0c1.954 4.397-3.908 6.352-2.198 10.015 3.175 1.465 8.06 3.664 8.06 8.061-.488 1.221-1.71.488-2.931.733-1.71-1.71-1.954-5.374-5.13-4.64v4.64c-7.083 2.197-3.175-6.352-6.594-8.794-7.328-3.663-3.176-11.725-3.42-18.32 6.595-5.373 9.282 5.13 12.213 8.305"/></g><path fill="#231F20" d="M23.925 194.016h1.81c.716 0 1.24-.074 1.578-.23.481-.214.724-.627.724-1.233 0-.897-.718-1.348-2.149-1.348h-1.963v2.81zm0 1.348v4.1H22.29v-9.607h3.761c2.406 0 3.608.915 3.608 2.743 0 1.52-.86 2.397-2.58 2.64l2.78 4.225h-1.842l-2.56-4.101h-1.532zm8.607-.725c0-2.062-.604-3.777-1.808-5.143-1.272-1.443-2.947-2.167-5.037-2.167-2.055 0-3.728.705-5.022 2.11-1.245 1.358-1.869 3.048-1.869 5.063 0 2.027.61 3.715 1.835 5.067 1.275 1.405 2.947 2.105 5.01 2.105 2.02 0 3.681-.69 4.99-2.072 1.268-1.336 1.901-2.99 1.901-4.963zm1.916-.293c0 2.536-.808 4.637-2.429 6.297-1.649 1.692-3.775 2.54-6.379 2.54-2.552 0-4.655-.831-6.307-2.493-1.626-1.638-2.44-3.7-2.44-6.188 0-2.47.831-4.532 2.493-6.19 1.662-1.66 3.765-2.486 6.301-2.486 2.47 0 4.546.816 6.235 2.457 1.685 1.639 2.526 3.66 2.526 6.063z"/></g></svg>